<svg width="12" height="12" viewBox="0 0 12 12" fill="none" xmlns="http://www.w3.org/2000/svg">
<path fill-rule="evenodd" clip-rule="evenodd" d="M6.55183 0.829806L7.95556 3.79378L10.8301 4.09937C11.1191 4.13967 11.358 4.34491 11.4414 4.62453C11.5248 4.90414 11.4374 5.20672 11.2177 5.39875L8.93195 7.28446L9.64003 10.4522C9.69572 10.7381 9.57972 11.0303 9.34308 11.2001C9.10643 11.37 8.7925 11.3865 8.53941 11.2422L5.88599 9.62981L3.23506 11.2422C2.98197 11.3865 2.66804 11.37 2.43139 11.2001C2.19475 11.0303 2.07875 10.7381 2.13444 10.4522L2.84251 7.28446L0.554315 5.39875C0.334502 5.20638 0.24732 4.90334 0.331305 4.62357C0.415289 4.3438 0.654957 4.13887 0.944378 4.09937L3.81891 3.79378L5.22264 0.829806C5.34969 0.579544 5.60657 0.421875 5.88723 0.421875C6.1679 0.421875 6.42477 0.579544 6.55183 0.829806Z" fill="#FF8900"/>
</svg>
